<svg xmlns="http://www.w3.org/2000/svg" xmlns:xlink="http://www.w3.org/1999/xlink" width="32" height="32" viewBox="0 0 32 32"><defs><clipPath id="b"><rect width="32" height="32"/></clipPath></defs><g id="a" clip-path="url(#b)"><path d="M-36-26a2,2,0,0,1-2-2A10.011,10.011,0,0,1-28-38,10.013,10.013,0,0,1-18-28h0a2,2,0,0,1-2,2Zm-12,0a2,2,0,0,1-2-2A10.012,10.012,0,0,1-40-38a9.981,9.981,0,0,1,5,1.343A10.043,10.043,0,0,0-40-28a2,2,0,0,0,1.91,2v0Zm15-19a5,5,0,0,1,5-5,5,5,0,0,1,5,5,5,5,0,0,1-5,5A5,5,0,0,1-33-45Zm-12,0a5.007,5.007,0,0,1,5-5,5.006,5.006,0,0,1,5,5,5.005,5.005,0,0,1-5,5A5.006,5.006,0,0,1-45-45Z" transform="translate(50 54)" fill="#333"/></g></svg>