<svg xmlns="http://www.w3.org/2000/svg" xmlns:xlink="http://www.w3.org/1999/xlink" width="32" height="32" viewBox="0 0 32 32"><defs><clipPath id="b"><rect width="32" height="32"/></clipPath></defs><g id="a" clip-path="url(#b)"><path d="M3,6.556V31.444A3.555,3.555,0,0,0,6.556,35H31.444A3.566,3.566,0,0,0,35,31.444V6.556A3.566,3.566,0,0,0,31.444,3H6.556A3.555,3.555,0,0,0,3,6.556Zm21.333,7.111A5.333,5.333,0,1,1,19,8.333,5.326,5.326,0,0,1,24.333,13.667Zm-16,14.222c0-3.556,7.111-5.511,10.667-5.511s10.667,1.956,10.667,5.511v1.778H8.333Z" transform="translate(-3 -3)" fill="#195fe0"/></g></svg>